<svg width="125" height="125" viewBox="0 0 125 125" fill="none" xmlns="http://www.w3.org/2000/svg">
<ellipse cx="64.9038" cy="62.5" rx="60.0962" ry="62.5" fill="#256C92"/>
<path d="M34.3382 36.664L49.5302 36.88C57.4022 36.88 63.1622 36.592 66.8102 36.016C67.3382 37.024 67.6022 38.176 67.6022 39.472C67.6022 40.768 67.0262 41.944 65.8742 43C64.7222 44.008 63.3302 44.512 61.6982 44.512L53.4182 43.576C53.4182 43.912 53.2982 45.4 53.0582 48.04C52.3862 54.52 52.0502 61.024 52.0502 67.552C52.0502 74.08 52.5542 80.608 53.5622 87.136C51.9782 87.712 50.3222 88 48.5942 88C46.8662 88 45.3782 87.52 44.1302 86.56C42.8822 85.552 42.2582 84.064 42.2582 82.096C42.2582 80.08 42.4982 76.552 42.9782 71.512C43.4582 66.472 43.6982 61.576 43.6982 56.824C43.6982 52.024 43.4582 47.56 42.9782 43.432C37.1702 43.72 32.6342 44.536 29.3702 45.88C28.7942 44.776 28.5062 43.552 28.5062 42.208C28.5062 40.816 29.0582 39.544 30.1622 38.392C31.2662 37.24 32.6582 36.664 34.3382 36.664ZM61.8247 39.184C68.7367 37.36 74.7607 36.448 79.8967 36.448C90.8887 36.448 96.3847 40.264 96.3847 47.896C96.3847 52.552 94.2007 56.104 89.8327 58.552C92.7607 59.272 95.1847 60.664 97.1047 62.728C99.0247 64.744 99.9847 67.288 99.9847 70.36C99.9847 76.12 97.8487 80.584 93.5767 83.752C89.3047 86.872 84.0247 88.432 77.7367 88.432C71.4487 88.432 66.0007 87.184 61.3927 84.688C62.8807 79.504 63.6247 72.52 63.6247 63.736C63.6247 54.904 63.0247 46.72 61.8247 39.184ZM72.6967 80.656C74.8087 81.328 76.9207 81.664 79.0327 81.664C82.3447 81.664 85.0807 80.848 87.2407 79.216C89.4007 77.536 90.4807 75.184 90.4807 72.16C90.4807 66.4 87.3607 63.52 81.1207 63.52C78.1447 63.52 75.1207 64.144 72.0487 65.392C72.0487 70.24 72.2647 75.328 72.6967 80.656ZM71.9767 59.056C72.6487 58.912 73.6327 58.744 74.9287 58.552C76.2727 58.36 77.3047 58.192 78.0247 58.048C78.7447 57.904 79.6327 57.688 80.6887 57.4C81.7927 57.112 82.6327 56.776 83.2087 56.392C83.8327 55.96 84.4567 55.432 85.0807 54.808C86.2807 53.608 86.8807 51.856 86.8807 49.552C86.8807 45.088 84.2167 42.856 78.8887 42.856C77.1607 42.856 75.0487 43.144 72.5527 43.72C72.1687 53.56 71.9767 58.672 71.9767 59.056Z" fill="white"/>
</svg>
